<svg xmlns="http://www.w3.org/2000/svg" xmlns:xlink="http://www.w3.org/1999/xlink" width="91.08" height="91.08" viewBox="0 0 91.08 91.08">
  <defs>
    <linearGradient id="linear-gradient" y1="0.5" x2="1" y2="0.5" gradientUnits="objectBoundingBox">
      <stop offset="0" stop-color="#d19bf6"/>
      <stop offset="1" stop-color="#8f9de9"/>
    </linearGradient>
    <filter id="iconmonstr-accessibility-3" x="0" y="0" width="91.08" height="91.08" filterUnits="userSpaceOnUse">
      <feOffset input="SourceAlpha"/>
      <feGaussianBlur stdDeviation="7.5" result="blur"/>
      <feFlood flood-opacity="0.569"/>
      <feComposite operator="in" in2="blur"/>
      <feComposite in="SourceGraphic"/>
    </filter>
  </defs>
  <g transform="matrix(1, 0, 0, 1, 0, 0)" filter="url(#iconmonstr-accessibility-3)">
    <path id="iconmonstr-accessibility-3-2" data-name="iconmonstr-accessibility-3" d="M23.04,0A23.04,23.04,0,1,1,0,23.04,23.04,23.04,0,0,1,23.04,0m0,3.84a19.2,19.2,0,1,1-19.2,19.2,19.2,19.2,0,0,1,19.2-19.2m0,1.92A17.28,17.28,0,1,1,5.76,23.04,17.28,17.28,0,0,1,23.04,5.76m-.021,22.08c-.91.012-1.469.86-1.9,1.544-.927,1.473-1.93,3.034-2.794,4.347a1.431,1.431,0,0,1-1.169.829.873.873,0,0,1-.747-1.213c.7-1.476,3.75-6.8,3.75-11.266,0-1.548-.824-1.92-1.92-1.92H14.4a.96.96,0,1,1,0-1.92H31.68a.96.96,0,1,1,0,1.92H27.84c-1.094,0-1.92.372-1.92,1.92,0,4.472,3.047,9.79,3.75,11.266a.872.872,0,0,1-.747,1.213,1.431,1.431,0,0,1-1.169-.829c-.864-1.313-1.868-2.874-2.794-4.347-.434-.689-1-1.548-1.92-1.544h-.021Zm.021-16.32a2.88,2.88,0,1,1-2.88,2.88,2.88,2.88,0,0,1,2.88-2.88" transform="translate(22.5 22.5)" fill-rule="evenodd" fill="url(#linear-gradient)"/>
  </g>
</svg>
