<svg xmlns="http://www.w3.org/2000/svg" width="18.352" height="11.544" viewBox="0 0 18.352 11.544">
  <g id="Grupo_168" data-name="Grupo 168" transform="translate(-1309.352 -662.52)">
    <path id="Trazado_98" data-name="Trazado 98" d="M11.44-1.232a.985.985,0,0,1,.1.416.8.8,0,0,1-.3.624,1.009,1.009,0,0,1-.68.256.909.909,0,0,1-.48-.136A.907.907,0,0,1,9.728-.5L8.768-2.64H3.136L2.176-.5a.907.907,0,0,1-.352.424.937.937,0,0,1-.5.136A1.019,1.019,0,0,1,.656-.192a.787.787,0,0,1-.3-.624.985.985,0,0,1,.1-.416L4.864-10.72a1.032,1.032,0,0,1,.44-.488,1.26,1.26,0,0,1,.632-.168,1.26,1.26,0,0,1,.632.168,1.032,1.032,0,0,1,.44.488ZM8.064-4.24,5.952-8.992,3.84-4.24Z" transform="translate(1309 674)" fill="#1D3E8D"/>
    <g id="Grupo_147" data-name="Grupo 147" transform="translate(-15.531 9.579)">
      <path id="Trazado_97" data-name="Trazado 97" d="M8-5.28a.683.683,0,0,1,.5.2.683.683,0,0,1,.2.5.683.683,0,0,1-.2.5.683.683,0,0,1-.5.2H5.5v2.48a.71.71,0,0,1-.2.512.67.67,0,0,1-.5.208A.67.67,0,0,1,4.3-.88a.71.71,0,0,1-.2-.512v-2.48H1.6a.683.683,0,0,1-.5-.2.683.683,0,0,1-.2-.5.683.683,0,0,1,.2-.5.683.683,0,0,1,.5-.2H4.1v-2.5a.683.683,0,0,1,.2-.5.683.683,0,0,1,.5-.2.683.683,0,0,1,.5.2.683.683,0,0,1,.2.5v2.5Z" transform="translate(1334.531 661.421)" fill="#1D3E8D"/>
    </g>
  </g>
</svg>
