<svg xmlns="http://www.w3.org/2000/svg" width="15.696" height="11.44" viewBox="0 0 15.696 11.44">
  <g id="Grupo_169" data-name="Grupo 169" transform="translate(-1311.352 -595.624)">
    <g id="Grupo_150" data-name="Grupo 150" transform="translate(2.395 -62.833)">
      <path id="Trazado_100" data-name="Trazado 100" d="M11.44-1.232a.985.985,0,0,1,.1.416.8.8,0,0,1-.3.624,1.009,1.009,0,0,1-.68.256.909.909,0,0,1-.48-.136A.907.907,0,0,1,9.728-.5L8.768-2.64H3.136L2.176-.5a.907.907,0,0,1-.352.424.937.937,0,0,1-.5.136A1.019,1.019,0,0,1,.656-.192a.787.787,0,0,1-.3-.624.985.985,0,0,1,.1-.416L4.864-10.72a1.032,1.032,0,0,1,.44-.488,1.26,1.26,0,0,1,.632-.168,1.26,1.26,0,0,1,.632.168,1.032,1.032,0,0,1,.44.488ZM8.064-4.24,5.952-8.992,3.84-4.24Z" transform="translate(1308.605 669.833)" fill="#1D3E8D"/>
    </g>
    <path id="Trazado_101" data-name="Trazado 101" d="M1.824-3.488a1.014,1.014,0,0,1-.7-.208A.734.734,0,0,1,.9-4.272a.759.759,0,0,1,.232-.584.989.989,0,0,1,.7-.216h3.3a.989.989,0,0,1,.7.216.759.759,0,0,1,.232.584.734.734,0,0,1-.232.576,1.014,1.014,0,0,1-.7.208Z" transform="translate(1321 604)" fill="#1D3E8D"/>
  </g>
</svg>
