<svg xmlns="http://www.w3.org/2000/svg" xmlns:xlink="http://www.w3.org/1999/xlink" width="91.08" height="91.08" viewBox="0 0 91.08 91.08">
  <defs>
    <linearGradient id="linear-gradient" x1="0.035" y1="0.5" x2="1" y2="0.5" gradientUnits="objectBoundingBox">
      <stop offset="0" stop-color="#d69ffc"/>
      <stop offset="1" stop-color="#92a1ef"/>
    </linearGradient>
    <filter id="iconmonstr-accessibility-3" x="0" y="0" width="91.08" height="91.08" filterUnits="userSpaceOnUse">
      <feOffset input="SourceAlpha"/>
      <feGaussianBlur stdDeviation="7.5" result="blur"/>
      <feFlood flood-opacity="0.569"/>
      <feComposite operator="in" in2="blur"/>
      <feComposite in="SourceGraphic"/>
    </filter>
    <filter id="Sustracci贸n_1" x="6" y="5.91" width="79" height="79" filterUnits="userSpaceOnUse">
      <feOffset input="SourceAlpha"/>
      <feGaussianBlur stdDeviation="7.5" result="blur-2"/>
      <feFlood flood-opacity="0.161"/>
      <feComposite operator="in" in2="blur-2"/>
      <feComposite in="SourceGraphic"/>
    </filter>
  </defs>
  <g id="Grupo_164" data-name="Grupo 164" transform="translate(-1217.5 -673.59)">
    <g transform="matrix(1, 0, 0, 1, 1217.5, 673.59)" filter="url(#iconmonstr-accessibility-3)">
      <path id="iconmonstr-accessibility-3-2" data-name="iconmonstr-accessibility-3" d="M23.04,0A23.04,23.04,0,1,1,0,23.04,23.04,23.04,0,0,1,23.04,0m0,3.84a19.2,19.2,0,1,1-19.2,19.2,19.2,19.2,0,0,1,19.2-19.2" transform="translate(22.5 22.5)" fill-rule="evenodd" fill="url(#linear-gradient)"/>
    </g>
    <g transform="matrix(1, 0, 0, 1, 1217.5, 673.59)" filter="url(#Sustracci贸n_1)">
      <path id="Sustracci贸n_1-2" data-name="Sustracci贸n 1" d="M17-788a16.89,16.89,0,0,1-12.021-4.979A16.888,16.888,0,0,1,0-805a16.889,16.889,0,0,1,4.979-12.021A16.889,16.889,0,0,1,17-822a16.889,16.889,0,0,1,12.021,4.979A16.889,16.889,0,0,1,34-805a16.888,16.888,0,0,1-4.979,12.02A16.89,16.89,0,0,1,17-788Zm-3.139-16.746h0L7.2-797.474h19.69l-6.666-7.272L17.04-802.17l-3.179-2.577Zm-6.684-5.416h0v10.274l5.4-5.9Zm19.726,0h0l-5.4,4.379,5.4,5.9v-10.274ZM7.189-812.269l9.851,7.983,9.851-7.983Z" transform="translate(28.5 850.41)" fill="url(#linear-gradient)"/>
    </g>
  </g>
</svg>
