<svg xmlns="http://www.w3.org/2000/svg" width="16.144" height="13.454" viewBox="0 0 16.144 13.454">
  <path id="iconmonstr-audio-21" d="M4.036,5.363,9.417,2V15.454L4.036,12.09ZM0,12.09H2.691V5.363H0ZM13.631,3.168,12.624,4.175a6.315,6.315,0,0,1,2.007,4.552,6.31,6.31,0,0,1-2.007,4.551l1.008,1.008a7.593,7.593,0,0,0,2.512-5.559,7.593,7.593,0,0,0-2.513-5.559ZM13.3,8.727A5.041,5.041,0,0,0,11.7,5.1L10.688,6.111a3.661,3.661,0,0,1,0,5.233L11.7,12.355a5.045,5.045,0,0,0,1.6-3.628Z" transform="translate(0 -2)" fill="#1D3E8D"/>
</svg>
