<svg xmlns="http://www.w3.org/2000/svg" width="11.184" height="11.44" viewBox="0 0 11.184 11.44">
  <path id="Trazado_99" data-name="Trazado 99" d="M11.44-1.232a.985.985,0,0,1,.1.416.8.8,0,0,1-.3.624,1.009,1.009,0,0,1-.68.256.909.909,0,0,1-.48-.136A.907.907,0,0,1,9.728-.5L8.768-2.64H3.136L2.176-.5a.907.907,0,0,1-.352.424.937.937,0,0,1-.5.136A1.019,1.019,0,0,1,.656-.192a.787.787,0,0,1-.3-.624.985.985,0,0,1,.1-.416L4.864-10.72a1.032,1.032,0,0,1,.44-.488,1.26,1.26,0,0,1,.632-.168,1.26,1.26,0,0,1,.632.168,1.032,1.032,0,0,1,.44.488ZM8.064-4.24,5.952-8.992,3.84-4.24Z" transform="translate(-0.352 11.376)" fill="#1D3E8D"/>
</svg>
